<svg viewBox="0 0 100 100" xmlns="http://www.w3.org/2000/svg">
  <path
    d="M 50,50
       m 0, -45
       a 45,45 0 0,1 45,45
       h -15
       a 30,30 0 0,0 -30,-30
       z"
    fill="#8b5cf6"
  />
  <path
    d="M 50,50
       m 0, -45
       a 45,45 0 0,1 45,45
       h -15
       a 30,30 0 0,0 -30,-30
       z"
    fill="#8b5cf6"
    transform="rotate(120, 50, 50)"
  />
  <path
    d="M 50,50
       m 0, -45
       a 45,45 0 0,1 45,45
       h -15
       a 30,30 0 0,0 -30,-30
       z"
    fill="#8b5cf6"
    transform="rotate(240, 50, 50)"
  />
</svg>